<?xml version="1.0" encoding="utf-8"?>
<!-- Generator: Adobe Illustrator 16.0.0, SVG Export Plug-In . SVG Version: 6.00 Build 0)  -->
<!DOCTYPE svg PUBLIC "-//W3C//DTD SVG 1.1//EN" "http://www.w3.org/Graphics/SVG/1.1/DTD/svg11.dtd">
<svg version="1.1" id="Layer_1" xmlns="http://www.w3.org/2000/svg" xmlns:xlink="http://www.w3.org/1999/xlink" x="0px" y="0px"
	 width="233px" height="40px" viewBox="0 0 233 40" enable-background="new 0 0 233 40" xml:space="preserve">
<g>
	<path fill="#FFFFFF" d="M114.849,22.241c0.154-0.631,0.233-1.215,0.233-1.755V16.17h-12.477v1.802h9.592v2.587
		c0,0.554-0.022,1.099-0.073,1.634c-0.049,0.535-0.154,1.01-0.32,1.421H100.71v1.806h6.602v2.821h-5.164v1.803h10.516v5.639h2.882
		v-7.441h-5.344V25.42h8.18v-1.806h-4.113C114.497,23.333,114.691,22.875,114.849,22.241z"/>
	<path fill="#FFFFFF" d="M135.028,22.241c0.153-0.631,0.234-1.215,0.234-1.755V16.17h-12.477v1.802h9.594v2.587
		c0,0.554-0.026,1.099-0.075,1.634c-0.048,0.535-0.155,1.01-0.32,1.421h-11.092v1.806h6.601v2.821h-5.164v1.803h10.516v5.639h2.884
		v-7.441h-5.345V25.42h8.179v-1.806h-4.115C134.677,23.333,134.87,22.875,135.028,22.241z"/>
	<path fill="#FFFFFF" d="M181.388,25.76h7.81c0.708,0,1.282-0.199,1.678-0.535c0.402-0.351,0.63-0.791,0.63-1.546v-7.454h-2.882
		v2.96h-6.659v-2.96h-2.882v7.454c0,0.755,0.226,1.195,0.631,1.546C180.107,25.561,180.679,25.76,181.388,25.76z M188.623,20.985
		v3.026h-6.659v-3.026H188.623z"/>
	<path fill="#FFFFFF" d="M144.315,25.817h9.761v-1.806h-9.2v-2.219h8.887v-1.804h-8.887v-2.017h9.2V16.17h-12.083v7.508
		c0,0.634,0.211,1.149,0.63,1.546C143.044,25.617,143.609,25.817,144.315,25.817z"/>
	<path fill="#FFFFFF" d="M206.254,20.234c0,0.57-0.032,1.117-0.086,1.646c-0.058,0.527-0.177,1.003-0.354,1.41h2.434
		c0.229-0.235,0.436-0.675,0.618-1.315c0.18-0.638,0.271-1.251,0.271-1.837v-3.934H196.67v1.823h9.584V20.234z"/>
	<polygon fill="#FFFFFF" points="202.324,20.751 199.441,20.751 199.441,24.501 194.552,24.501 194.552,26.302 211.435,26.302 
		211.435,24.501 202.324,24.501 	"/>
	<polygon fill="#FFFFFF" points="149.782,27.411 146.731,27.411 146.731,30.724 140.278,30.724 140.278,32.524 156.402,32.524 
		156.402,30.724 149.782,30.724 	"/>
	<polygon fill="#FFFFFF" points="186.731,27.411 183.851,27.411 183.851,30.724 177.397,30.724 177.397,32.524 193.188,32.524 
		193.188,30.724 186.731,30.724 	"/>
	<polygon fill="#FFFFFF" points="228.854,20.744 228.854,16.047 225.971,16.047 225.971,35.678 228.854,35.678 228.854,22.542 
		231.832,22.542 231.832,20.744 	"/>
	<polygon fill="#FFFFFF" points="171.239,19.491 168.097,19.491 168.097,21.297 171.239,21.297 171.239,26.206 174.122,26.206 
		174.122,16.11 171.239,16.11 	"/>
	<path fill="#FFFFFF" d="M163.626,23.24c1.723,0.349,4.013,1.518,5.185,2.55l1.192-1.475c-0.854-0.912-3.661-2.522-5.203-3.002
		c0.238-0.64,0.379-1.335,0.379-2.101v-1.119h3.347v-1.802h-9.587v1.802h3.347v1.119c0,1.326-0.531,4.17-4.051,4.854v1.771
		c0.437,0,0.842-0.088,1.253-0.188C161.005,25.274,162.535,24.461,163.626,23.24z"/>
	<polygon fill="#FFFFFF" points="96.12,16.047 93.239,16.047 93.239,28.364 96.12,28.364 96.12,22.398 98.839,22.398 98.839,20.575 
		96.12,20.575 	"/>
	<path fill="#FFFFFF" d="M86.923,28.994h-2.882v4.544c0,0.667,0.219,1.185,0.654,1.567c0.436,0.377,0.982,0.572,1.642,0.572h10.501
		v-1.802h-9.915V28.994z"/>
	<path fill="#FFFFFF" d="M172.454,28.378c-1.071-0.894-2.368-1.343-3.901-1.343c-1.513,0-2.804,0.449-3.873,1.343
		c-1.072,0.895-1.606,1.97-1.606,3.236c0,1.263,0.534,2.339,1.606,3.224c1.069,0.885,2.36,1.326,3.873,1.326
		c1.533,0,2.83-0.441,3.901-1.326c1.068-0.885,1.604-1.961,1.604-3.224C174.059,30.348,173.522,29.272,172.454,28.378z
		 M168.568,34.366c-1.443,0-2.611-1.241-2.611-2.774c0-1.536,1.168-2.782,2.611-2.782c1.436,0,2.605,1.246,2.605,2.782
		C171.174,33.125,170.004,34.366,168.568,34.366z"/>
	<path fill="#FFFFFF" d="M206.801,28.378c-1.066-0.894-2.368-1.343-3.9-1.343c-1.516,0-2.799,0.449-3.875,1.343
		c-1.067,0.895-1.604,1.97-1.604,3.236c0,1.263,0.536,2.339,1.604,3.224c1.076,0.885,2.359,1.326,3.875,1.326
		c1.532,0,2.834-0.441,3.9-1.326c1.072-0.885,1.605-1.961,1.605-3.224C208.406,30.348,207.873,29.272,206.801,28.378z
		 M202.914,34.366c-1.439,0-2.607-1.241-2.607-2.774c0-1.536,1.168-2.782,2.607-2.782c1.442,0,2.607,1.246,2.607,2.782
		C205.521,33.125,204.356,34.366,202.914,34.366z"/>
	<path fill="#FFFFFF" d="M89.244,25.382c1.048-0.864,1.574-1.92,1.574-3.162c0-1.149-0.46-2.145-1.368-2.979h1.587v-1.805h-4.22
		v-1.417h-2.883v1.417h-4.221v1.805h1.706c-0.907,0.834-1.366,1.829-1.366,2.979c0,1.242,0.524,2.298,1.572,3.162
		c1.047,0.868,2.313,1.302,3.798,1.302C86.921,26.684,88.197,26.25,89.244,25.382z M82.878,22.197c0-1.502,1.145-2.723,2.557-2.723
		c1.411,0,2.556,1.221,2.556,2.723c0,1.501-1.145,2.723-2.556,2.723C84.023,24.92,82.878,23.698,82.878,22.197z"/>
	<path fill="#FFFFFF" d="M220.179,22.642c0.189-0.559,0.31-1.193,0.31-1.931v-4.475h-2.995v3.898c0,2.308-0.839,4.55-4.047,5.265
		v1.957c1.036-0.076,2.932-0.715,3.896-1.378c0.407-0.285,1.021-0.694,1.598-1.306c1.623,0.649,3.171,1.729,4.315,2.93l1.413-1.5
		C224.061,25.001,221.714,23.325,220.179,22.642z"/>
</g>
<g>
	<g>
		<path fill="#00B8A3" d="M61.773,20.975c-0.468-0.514-0.94-0.975-1.414-1.393c0.316-0.312,0.631-0.638,0.944-0.997L73.444,3.839
			H63.058l-6.978,8.494c-1.903,2.294-3.059,3.278-5.136,3.278s-3.233-0.983-5.135-3.278L38.83,3.839L28.444,3.835l12.144,14.75
			c0.327,0.375,0.655,0.715,0.985,1.038c-0.458,0.406-0.914,0.855-1.366,1.352l-6.197,7.169c-4.536,0-12.264,0-12.264,0
			c-7.061,0-11.448-4.229-11.448-11.033c0,0,0-12.68,0-12.87h-9.13c0,0.19,0,12.87,0,12.87c0,15.152,10.892,19.054,20.168,19.054
			h15.016c1.159,0,1.792-0.252,2.395-0.975l6.895-7.998c1.982-2.28,3.185-3.257,5.349-3.257c2.161,0,3.365,0.977,5.347,3.257
			l7.711,8.966h10.834L61.773,20.975z"/>
	</g>
</g>
</svg>
