<svg id="Layer_1" data-name="Layer 1" xmlns="http://www.w3.org/2000/svg" viewBox="0 0 51.93 51.9"><defs><style>.cls-1{fill:none;stroke:#f19f88;stroke-miterlimit:10;}</style></defs><title>loading</title>
<path class="cls-1" d="M31.5,20.8H20.2a2.9,2.9,0,0,0-2.9,2.9v2.5a2.9,2.9,0,0,0,2.9,2.9H31.4a2.9,2.9,0,0,0,2.9-2.9V23.7A2.76,2.76,0,0,0,31.5,20.8Z" transform="translate(0.13 1)"/>
<path class="cls-1" d="M25.8-.5H.4V18.8a2.9,2.9,0,0,0,2.9,2.9H7.2V6.3H44.5V21.7h3.9a2.9,2.9,0,0,0,2.9-2.9V-.5Z" transform="translate(0.13 1)"/>
<path class="cls-1" d="M48.4,26.5H44.5V43.6H25.8A18.76,18.76,0,0,1,7.7,29.5C7,26.6.4,26.6.4,26.6A25.32,25.32,0,0,0,25.7,50.4H51.1v-21A2.62,2.62,0,0,0,48.4,26.5Z" transform="translate(0.13 1)"/>
</svg>